<mxfile host="app.diagrams.net" modified="2024-07-02T14:23:44.488Z" agent="Mozilla/5.0 (Windows NT 10.0; Win64; x64) AppleWebKit/537.36 (KHTML, like Gecko) Chrome/128.0.0.0 Safari/537.36 Edg/128.0.0.0" etag="5-xtZ3XlmO_zFMZ-UjFK" version="24.3.1" type="github">
  <diagram name="第 1 页" id="YFuhTDJOTaZfT-7jpeOV">
    <mxGraphModel dx="956" dy="577" grid="1" gridSize="10" guides="1" tooltips="1" connect="1" arrows="1" fold="1" page="1" pageScale="1" pageWidth="827" pageHeight="1169" math="0" shadow="0">
      <root>
        <mxCell id="0" />
        <mxCell id="1" parent="0" />
        <mxCell id="UFhu3RE3HzpwuVOMSdMs-5" style="edgeStyle=orthogonalEdgeStyle;rounded=0;orthogonalLoop=1;jettySize=auto;html=1;entryX=0.5;entryY=0;entryDx=0;entryDy=0;" edge="1" parent="1" source="UFhu3RE3HzpwuVOMSdMs-1" target="UFhu3RE3HzpwuVOMSdMs-3">
          <mxGeometry relative="1" as="geometry" />
        </mxCell>
        <mxCell id="UFhu3RE3HzpwuVOMSdMs-1" value="开始" style="rounded=1;whiteSpace=wrap;html=1;" vertex="1" parent="1">
          <mxGeometry x="320" y="30" width="120" height="60" as="geometry" />
        </mxCell>
        <mxCell id="UFhu3RE3HzpwuVOMSdMs-6" style="edgeStyle=orthogonalEdgeStyle;rounded=0;orthogonalLoop=1;jettySize=auto;html=1;entryX=0.5;entryY=0;entryDx=0;entryDy=0;" edge="1" parent="1" source="UFhu3RE3HzpwuVOMSdMs-3" target="UFhu3RE3HzpwuVOMSdMs-4">
          <mxGeometry relative="1" as="geometry" />
        </mxCell>
        <mxCell id="UFhu3RE3HzpwuVOMSdMs-3" value="寻找对应标签的pod" style="rounded=0;whiteSpace=wrap;html=1;" vertex="1" parent="1">
          <mxGeometry x="277" y="130" width="206" height="60" as="geometry" />
        </mxCell>
        <mxCell id="UFhu3RE3HzpwuVOMSdMs-9" style="edgeStyle=orthogonalEdgeStyle;rounded=0;orthogonalLoop=1;jettySize=auto;html=1;entryX=1;entryY=0.5;entryDx=0;entryDy=0;" edge="1" parent="1" source="UFhu3RE3HzpwuVOMSdMs-4" target="UFhu3RE3HzpwuVOMSdMs-7">
          <mxGeometry relative="1" as="geometry" />
        </mxCell>
        <mxCell id="UFhu3RE3HzpwuVOMSdMs-10" style="edgeStyle=orthogonalEdgeStyle;rounded=0;orthogonalLoop=1;jettySize=auto;html=1;" edge="1" parent="1" source="UFhu3RE3HzpwuVOMSdMs-4">
          <mxGeometry relative="1" as="geometry">
            <mxPoint x="480" y="260" as="targetPoint" />
          </mxGeometry>
        </mxCell>
        <mxCell id="UFhu3RE3HzpwuVOMSdMs-4" value="比对数量" style="rhombus;whiteSpace=wrap;html=1;" vertex="1" parent="1">
          <mxGeometry x="315" y="220" width="130" height="80" as="geometry" />
        </mxCell>
        <mxCell id="UFhu3RE3HzpwuVOMSdMs-7" value="删除" style="rounded=0;whiteSpace=wrap;html=1;" vertex="1" parent="1">
          <mxGeometry x="180" y="230" width="90" height="60" as="geometry" />
        </mxCell>
        <mxCell id="UFhu3RE3HzpwuVOMSdMs-8" value="模板创建" style="rounded=0;whiteSpace=wrap;html=1;" vertex="1" parent="1">
          <mxGeometry x="483" y="230" width="90" height="60" as="geometry" />
        </mxCell>
        <mxCell id="UFhu3RE3HzpwuVOMSdMs-11" value="多了" style="text;html=1;align=center;verticalAlign=middle;resizable=0;points=[];autosize=1;strokeColor=none;fillColor=none;" vertex="1" parent="1">
          <mxGeometry x="270" y="230" width="50" height="30" as="geometry" />
        </mxCell>
        <mxCell id="UFhu3RE3HzpwuVOMSdMs-12" value="少了" style="text;html=1;align=center;verticalAlign=middle;resizable=0;points=[];autosize=1;strokeColor=none;fillColor=none;" vertex="1" parent="1">
          <mxGeometry x="433" y="230" width="50" height="30" as="geometry" />
        </mxCell>
        <mxCell id="UFhu3RE3HzpwuVOMSdMs-14" value="" style="endArrow=classic;html=1;rounded=0;exitX=0.5;exitY=1;exitDx=0;exitDy=0;" edge="1" parent="1" source="UFhu3RE3HzpwuVOMSdMs-7">
          <mxGeometry width="50" height="50" relative="1" as="geometry">
            <mxPoint x="220" y="410" as="sourcePoint" />
            <mxPoint x="380" y="350" as="targetPoint" />
            <Array as="points">
              <mxPoint x="225" y="350" />
            </Array>
          </mxGeometry>
        </mxCell>
        <mxCell id="UFhu3RE3HzpwuVOMSdMs-15" value="" style="endArrow=classic;html=1;rounded=0;exitX=0.5;exitY=1;exitDx=0;exitDy=0;" edge="1" parent="1" source="UFhu3RE3HzpwuVOMSdMs-8">
          <mxGeometry width="50" height="50" relative="1" as="geometry">
            <mxPoint x="420" y="460" as="sourcePoint" />
            <mxPoint x="380" y="350" as="targetPoint" />
            <Array as="points">
              <mxPoint x="528" y="350" />
            </Array>
          </mxGeometry>
        </mxCell>
        <mxCell id="UFhu3RE3HzpwuVOMSdMs-17" value="刚好" style="text;html=1;align=center;verticalAlign=middle;resizable=0;points=[];autosize=1;strokeColor=none;fillColor=none;" vertex="1" parent="1">
          <mxGeometry x="380" y="300" width="50" height="30" as="geometry" />
        </mxCell>
        <mxCell id="UFhu3RE3HzpwuVOMSdMs-18" value="" style="endArrow=classic;html=1;rounded=0;exitX=0.004;exitY=-0.04;exitDx=0;exitDy=0;exitPerimeter=0;" edge="1" parent="1" source="UFhu3RE3HzpwuVOMSdMs-17">
          <mxGeometry width="50" height="50" relative="1" as="geometry">
            <mxPoint x="340" y="420" as="sourcePoint" />
            <mxPoint x="380" y="110" as="targetPoint" />
            <Array as="points">
              <mxPoint x="380" y="410" />
              <mxPoint x="610" y="410" />
              <mxPoint x="610" y="110" />
            </Array>
          </mxGeometry>
        </mxCell>
      </root>
    </mxGraphModel>
  </diagram>
</mxfile>
